<?xml version="1.0" encoding="utf-8"?>
<svg viewBox="0 0 500 500" xmlns="http://www.w3.org/2000/svg">
  <g id="SVGRepo_tracerCarrier" stroke-linecap="round" stroke-linejoin="round" stroke="#000000" stroke-width="7.68" transform="matrix(4.297542095184326, 0, 0, 4.256206035614014, -24.796646487662883, -41.24272217218162)" style="">
    <path d="M 116.6 62.86 L 73.98 62.86 C 73.32 62.86 72.79 63.39 72.79 64.05 L 72.79 81.88 C 72.79 82.19 72.91 82.5 73.14 82.72 C 73.36 82.94 73.66 83.07 73.98 83.07 L 87.79 83.05 C 86.74 91.44 77.24 98.3 66.3 98.3 C 49.43 98.3 39 82.8 39 68.43 C 39 54.3 49.438 39.565 66.528 39.565 C 73.938 39.565 83.25 44.11 88.18 48.39 C 88.42 48.6 88.73 48.69 89.04 48.68 C 89.36 48.66 89.66 48.51 89.86 48.27 L 105.71 29.98 C 106.13 29.492 106.09 28.76 105.62 28.32 C 95.48 18.92 81.88 13.95 66.3 13.95 C 33.8 13.95 10.21 36.86 10.21 68.42 C 10.21 99.99 33.8 122.9 66.3 122.9 C 115.31 122.9 117.79 73.86 117.79 64.03 C 117.79 63.39 117.26 62.86 116.6 62.86 Z" fill="#ffffff"/>
  </g>
  <g id="SVGRepo_iconCarrier" transform="matrix(4.297542095184326, 0, 0, 4.256206035614014, -24.796646487662883, -41.24272217218162)" style="">
    <path d="M116.6 62.86H73.98c-.66 0-1.19.53-1.19 1.19v17.83c0 .31.12.62.35.84c.22.22.52.35.84.35l13.81-.02C86.74 91.44 77.24 98.3 66.3 98.3C49.43 98.3 39 82.8 39 68.43c0-14.13 10.21-28.75 27.3-28.75c7.41 0 16.95 4.43 21.88 8.71c.24.21.55.3.86.29c.32-.02.62-.17.82-.41l15.85-18.29a1.2 1.2 0 0 0-.09-1.66c-10.14-9.4-23.74-14.37-39.32-14.37c-32.5 0-56.09 22.91-56.09 54.47c0 31.57 23.59 54.48 56.09 54.48c49.01 0 51.49-49.04 51.49-58.87c0-.64-.53-1.17-1.19-1.17z" style="fill: rgb(138, 138, 138);"/>
  </g>
  <g id="g-2" stroke-linecap="round" stroke-linejoin="round" stroke="#000000" stroke-width="7.68" transform="matrix(5.0883588790893555, 0, 0, 4.399789810180665, -143.74078583331087, -50.40483931310233)" style="">
    <path d="M101.15 15.54H34.86c-1.23 0-2.24 1-2.24 2.24v100.97c0 1.24 1.01 2.24 2.24 2.24h21.89c1.24 0 2.24-1 2.24-2.24v-44H94.1c1.24 0 2.24-1 2.24-2.24V55.79c0-1.24-1-2.24-2.24-2.24H58.99v-16.8h42.16c1.24 0 2.24-1 2.24-2.24V17.78c0-1.24-1-2.24-2.24-2.24z" fill="#ffffff"/>
  </g>
  <g id="g-3" transform="matrix(5.0883588790893555, 0, 0, 4.399789810180665, -143.74078583331087, -50.40483931310233)" style="">
    <path d="M101.15 15.54H34.86c-1.23 0-2.24 1-2.24 2.24v100.97c0 1.24 1.01 2.24 2.24 2.24h21.89c1.24 0 2.24-1 2.24-2.24v-44H94.1c1.24 0 2.24-1 2.24-2.24V55.79c0-1.24-1-2.24-2.24-2.24H58.99v-16.8h42.16c1.24 0 2.24-1 2.24-2.24V17.78c0-1.24-1-2.24-2.24-2.24z" fill="#ffffff"/>
  </g>
</svg>