<svg xmlns="http://www.w3.org/2000/svg" width="16" height="16" viewBox="0 0 16 16">
  <g id="Group_177" data-name="Group 177" transform="translate(-454.241 -363.136)">
    <path id="Path_258" data-name="Path 258" d="M454.241,371.635v-1c.034-.258.06-.515.1-.772a8.006,8.006,0,0,1,7.55-6.721,7.73,7.73,0,0,1,6.083,2.47,7.9,7.9,0,0,1,2.266,5.665q0,3.929,0,7.858H461.8a1.218,1.218,0,0,0-.135-.027,8.115,8.115,0,0,1-7.31-6.642C454.308,372.192,454.28,371.912,454.241,371.635Zm8.741,1.077c.005-.033.012-.057.013-.082a1.742,1.742,0,0,1,.654-1.344,10.6,10.6,0,0,0,.825-.808,2.185,2.185,0,0,0-1.072-3.551,4.443,4.443,0,0,0-1.625-.117,2.739,2.739,0,0,0-1.315.448,2.3,2.3,0,0,0-.968,1.993h1.93a3.877,3.877,0,0,1,.214-.6.7.7,0,0,1,.761-.339.605.605,0,0,1,.55.42,1.114,1.114,0,0,1-.174,1.134,6.5,6.5,0,0,1-.65.65,2.082,2.082,0,0,0-.711,1.2c-.058.323-.078.653-.116.992Zm-.779,2.773c.027,0,.079,0,.13-.006a1,1,0,0,0,.932-.911.961.961,0,0,0-.753-1.009,1.433,1.433,0,0,0-.432-.042.99.99,0,0,0-.964,1.262A1.061,1.061,0,0,0,462.2,375.485Z" transform="translate(0)" fill="#535353"/>
  </g>
</svg>
